<?xml version="1.0" standalone="no"?><!DOCTYPE svg PUBLIC "-//W3C//DTD SVG 1.1//EN" "http://www.w3.org/Graphics/SVG/1.1/DTD/svg11.dtd"><svg t="1610002001253" class="icon" viewBox="0 0 1024 1024" version="1.1" xmlns="http://www.w3.org/2000/svg" p-id="1213" xmlns:xlink="http://www.w3.org/1999/xlink" width="200" height="200"><defs><style type="text/css"></style></defs><path d="M532.48 768.64v-98.56l60.16-60.16c7.04-7.04 7.04-19.2 0-26.24-7.04-7.04-19.2-7.04-26.24 0l-52.48 52.48-52.48-52.48c-7.04-7.04-19.2-7.04-26.24 0-7.04 7.04-7.04 19.2 0 26.24l60.16 60.16v98.56m20.48-584.96c-137.6 0-248.96 111.36-248.96 248.96 0 88.96 47.36 170.88 124.16 215.68v108.16c0 13.44 10.88 24.96 24.96 24.96h199.04c13.44 0 24.96-10.88 24.96-24.96v-108.16c76.8-44.16 124.16-126.72 124.16-215.68 0-137.6-111.36-248.96-248.32-248.96" fill="#FFF27D" p-id="1214"></path><path d="M615.04 793.6H416c-20.48 0-37.76-16.64-37.76-37.76v-100.48c-76.8-47.36-124.16-131.84-124.16-222.72C254.08 288 371.2 170.88 515.84 170.88c144 0 261.76 117.12 261.76 261.76 0 90.88-47.36 175.36-124.16 222.72v100.48c-0.64 20.48-17.28 37.76-38.4 37.76z m-69.76-25.6h69.76c6.4 0 12.16-5.12 12.16-12.16v-108.16c0-4.48 2.56-8.96 6.4-10.88 72.96-42.24 117.76-120.32 117.76-204.16 0-129.92-105.6-236.16-236.16-236.16S279.68 302.08 279.68 432.64c0 83.84 45.44 162.56 117.76 204.16 3.84 2.56 6.4 6.4 6.4 10.88v108.16c0 6.4 5.12 12.16 12.16 12.16h66.56v-92.8l-56.32-56.32c-12.16-12.16-12.16-32 0-44.16 12.16-12.16 32-12.16 44.16 0l43.52 43.52 43.52-43.52c12.16-12.16 32-12.16 44.16 0 5.76 5.76 8.96 14.08 8.96 22.4s-3.2 16-8.96 22.4l-56.32 56.32V768z m-37.12 0h11.52v-97.92c0-3.2 1.28-6.4 3.84-8.96l60.16-60.16c1.28-1.28 1.92-3.2 1.92-3.84s0-2.56-1.92-3.84c-1.92-1.92-5.76-1.92-8.32 0l-52.48 52.48c-5.12 5.12-12.8 5.12-17.92 0l-52.48-52.48c-1.92-1.92-5.76-1.92-8.32 0-1.92 1.92-1.92 5.76 0 8.32l60.16 60.16c2.56 2.56 3.84 5.76 3.84 8.96V768z" fill="#708DB7" p-id="1215"></path><path d="M456.96 368.64m-115.2 0a115.2 115.2 0 1 0 230.4 0 115.2 115.2 0 1 0-230.4 0Z" fill="#FFFBDE" p-id="1216"></path><path d="M576 854.4H446.72c-20.48 0-36.48-16.64-36.48-36.48 0-20.48 16.64-36.48 36.48-36.48H576c20.48 0 36.48 16.64 36.48 36.48 0.64 19.84-16 36.48-36.48 36.48z" fill="#E8E6FF" p-id="1217"></path><path d="M576 867.2H446.72c-27.52 0-49.28-22.4-49.28-49.28s22.4-49.28 49.28-49.28H576c27.52 0 49.28 22.4 49.28 49.28s-21.76 49.28-49.28 49.28zM446.72 793.6c-13.44 0-23.68 10.88-23.68 23.68s10.88 23.68 23.68 23.68H576c13.44 0 23.68-10.88 23.68-23.68S589.44 793.6 576 793.6H446.72z" fill="#708DB7" p-id="1218"></path><path d="M567.04 918.4H458.88c-14.08 0-25.6-11.52-25.6-25.6v-7.04c0-14.08 11.52-25.6 25.6-25.6h107.52c14.08 0 25.6 11.52 25.6 25.6v7.04c0.64 14.08-10.88 25.6-24.96 25.6z" fill="#E8E6FF" p-id="1219"></path><path d="M567.04 931.2H458.88c-21.12 0-38.4-17.28-38.4-38.4v-7.04c0-21.12 17.28-38.4 38.4-38.4h107.52c21.12 0 38.4 17.28 38.4 38.4v7.04c0.64 21.12-16.64 38.4-37.76 38.4z m-108.16-58.24c-7.04 0-12.8 5.76-12.8 12.8v7.04c0 7.04 5.76 12.8 12.8 12.8h107.52c7.04 0 12.8-5.76 12.8-12.8v-7.04c0-7.04-5.76-12.8-12.8-12.8H458.88z" fill="#708DB7" p-id="1220"></path><path d="M512 96v44.8" fill="#E8E6FF" p-id="1221"></path><path d="M512 153.6c-7.04 0-12.8-5.76-12.8-12.8v-44.8c0-7.04 5.76-12.8 12.8-12.8s12.8 5.76 12.8 12.8v44.8c0 7.04-5.76 12.8-12.8 12.8z" fill="#708DB7" p-id="1222"></path><path d="M712.96 152.96l-30.72 33.28" fill="#E8E6FF" p-id="1223"></path><path d="M682.24 199.04c-3.2 0-6.4-1.28-8.96-3.2-5.12-4.48-5.76-12.8-0.64-17.92l30.08-33.28c4.48-5.12 12.8-5.76 17.92-0.64 5.12 4.48 5.76 12.8 0.64 17.92l-30.08 33.28c-1.92 2.56-5.12 3.84-8.96 3.84z" fill="#708DB7" p-id="1224"></path><path d="M323.84 152.96l30.72 33.28" fill="#E8E6FF" p-id="1225"></path><path d="M354.56 199.04c-3.2 0-7.04-1.28-9.6-3.84l-30.08-33.28c-4.48-5.12-4.48-13.44 0.64-17.92 5.12-4.48 13.44-4.48 17.92 0.64l30.08 33.28c4.48 5.12 4.48 13.44-0.64 17.92-2.56 1.92-5.76 3.2-8.32 3.2z" fill="#708DB7" p-id="1226"></path><path d="M821.76 272l-43.52 12.8" fill="#E8E6FF" p-id="1227"></path><path d="M778.24 297.6c-5.76 0-10.88-3.84-12.16-8.96-1.92-7.04 1.92-14.08 8.32-16l42.88-12.8c7.04-1.92 14.08 1.92 16 8.32 1.92 7.04-1.92 14.08-8.32 16l-42.88 12.8c-1.28 0.64-2.56 0.64-3.84 0.64z" fill="#708DB7" p-id="1228"></path><path d="M227.84 259.2l43.52 12.8" fill="#E8E6FF" p-id="1229"></path><path d="M271.36 284.8c-1.28 0-2.56 0-3.84-0.64l-42.88-12.8c-7.04-1.92-10.88-8.96-8.32-16 1.92-7.04 8.96-10.88 16-8.32l42.88 12.8c7.04 1.92 10.88 8.96 8.32 16-1.92 5.76-7.04 8.96-12.16 8.96z" fill="#708DB7" p-id="1230"></path></svg>